

<svg width="25"  height="25" viewBox="0 0 25 25" xmlns="http://www.w3.org/2000/svg">



<!--path d="M5,11 L10,1 15,11 4,4 16,4" stroke="red" fill="red" stroke-width="1"/>-->
<!--<g transform="rotate(30 15 15)">
    <circle cx="20" cy="23.6" r="1" fill="cyan"/>
    <circle cx="10" cy="23.6" r="1" fill="red"/>
    <circle cx="5" cy="15" r="1" fill="blue"/>
    <circle cx="10" cy="6.339" r="1" fill="yellow"/>
    <circle cx="20" cy="6.339" r="1" fill="orange"/>
    <circle cx="25" cy="15" r="1" fill="green"/>
</g>-->

    <!--<circle cx="23.66" cy="20" r="1" fill="cyan"/>
    <circle cx="23.66" cy="10" r="1" fill="red"/>
    <circle cx="15" cy="5" r="1" fill="blue"/>
    <circle cx="6.339" cy="10" r="1" fill="green"/>
    <circle cx="6.339" cy="20" r="1" fill="gray"/>
    <circle cx="15" cy="25" r="1" fill="black"/>


    <circle cx="11.339" cy="10" r="1" fill="brown"/>
    <circle cx="18.66" cy="10" r="1" fill="brown"/>
    <circle cx="11.339" cy="15" r="1" fill="brown"/>
    <circle cx="18.66" cy="15" r="1" fill="brown"/>
    <circle cx="11.339" cy="20" r="1" fill="brown"/>
    <circle cx="18.66" cy="20" r="1" fill="brown"/>-->

<g transform="scale(1, 1)">
    <path d="M 15,5 L 18.66,10  23.66,10 20.66,15 23.66,20 18.66,20 15,25 11.339,20 6.339,20 9.339,15 6.339,10 11.339,10 z" stroke="#0cb02a" stroke-width="1.2" fill="#cf132a"/>
    </g>
</svg>