<svg width="400" height="400" viewBox="0 0 200 200" xmlns="http://www.w3.org/2000/svg" xmlns:xlink="http://www.w3.org/1999/xlink">
    <defs>
        <g id="spoke">
            <path d="M 45,5 L44,40 45,50 46,40 45,5" stroke="#008" fill="#008" />
        </g>
    </defs>
    <g transform="translate(10 10)">
        <circle cx="45" cy="50" r="50" fill="none" stroke-width="4" stroke="#008" />
        <use xlink:href="#spoke" x="0" y="0" />
        <use xlink:href="#spoke" x="0" y="0" transform="rotate(15 45 50)" />
        <use xlink:href="#spoke" x="0" y="0" transform="rotate(30 45 50)" />
        <use xlink:href="#spoke" x="0" y="0" transform="rotate(45 45 50)" />
        <use xlink:href="#spoke" x="0" y="0" transform="rotate(60 45 50)" />
        <use xlink:href="#spoke" x="0" y="0" transform="rotate(75 45 50)" />
        <use xlink:href="#spoke" x="0" y="0" transform="rotate(90 45 50)" />
        <use xlink:href="#spoke" x="0" y="0" transform="rotate(105 45 50)" />
        <use xlink:href="#spoke" x="0" y="0" transform="rotate(120 45 50)" />
        <use xlink:href="#spoke" x="0" y="0" transform="rotate(135 45 50)" />
        <use xlink:href="#spoke" x="0" y="0" transform="rotate(150 45 50)" />
        <use xlink:href="#spoke" x="0" y="0" transform="rotate(165 45 50)" />
        <use xlink:href="#spoke" x="0" y="0" transform="rotate(180 45 50)" />
        <use xlink:href="#spoke" x="0" y="0" transform="rotate(195 45 50)" />
        <use xlink:href="#spoke" x="0" y="0" transform="rotate(210 45 50)" />
        <use xlink:href="#spoke" x="0" y="0" transform="rotate(225 45 50)" />
        <use xlink:href="#spoke" x="0" y="0" transform="rotate(240 45 50)" />
        <use xlink:href="#spoke" x="0" y="0" transform="rotate(255 45 50)" />
        <use xlink:href="#spoke" x="0" y="0" transform="rotate(270 45 50)" />
        <use xlink:href="#spoke" x="0" y="0" transform="rotate(285 45 50)" />
        <use xlink:href="#spoke" x="0" y="0" transform="rotate(300 45 50)" />
        <use xlink:href="#spoke" x="0" y="0" transform="rotate(315 45 50)" />
        <use xlink:href="#spoke" x="0" y="0" transform="rotate(330 45 50)" />
        <use xlink:href="#spoke" x="0" y="0" transform="rotate(345 45 50)" />
    </g>
    <defs>
        <g id="circle">
            <circle cx="55" cy="60" r="3" fill="#008" />
        </g>
    </defs>
    <defs>
        <g id="circle-grp">
            <!-- <line x1="55" y1="60" x2="55" y2="110" stroke="green" stroke-width="3" />
<line x1="55" y1="60" x2="55" y2="10" stroke="green" stroke-width="3" />
 -->
            <use xlink:href="#circle" x="0" y="0" transform="translate(0 48)" />
            <use xlink:href="#circle" x="0" y="0" transform="translate(0 -48)" />
        </g>
    </defs>
    <use xlink:href="#circle-grp" x="0" y="0" transform="rotate(7.5 55 60)" />
    <use xlink:href="#circle-grp" x="0" y="0" transform="rotate(22.5 55 60)" />
    <use xlink:href="#circle-grp" x="0" y="0" transform="rotate(37.5 55 60)" />
    <use xlink:href="#circle-grp" x="0" y="0" transform="rotate(52.5 55 60)" />
    <use xlink:href="#circle-grp" x="0" y="0" transform="rotate(67.5 55 60)" />
    <use xlink:href="#circle-grp" x="0" y="0" transform="rotate(82.5 55 60)" />
    <use xlink:href="#circle-grp" x="0" y="0" transform="rotate(97.5 55 60)" />
    <use xlink:href="#circle-grp" x="0" y="0" transform="rotate(112.5 55 60)" />
    <use xlink:href="#circle-grp" x="0" y="0" transform="rotate(127.5 55 60)" />
    <use xlink:href="#circle-grp" x="0" y="0" transform="rotate(142.5 55 60)" />
    <use xlink:href="#circle-grp" x="0" y="0" transform="rotate(157.5 55 60)" />
    <use xlink:href="#circle-grp" x="0" y="0" transform="rotate(172.5 55 60)" />
</svg>
